<?xml version="1.0" encoding="iso-8859-1"?>
<!-- Generator: Adobe Illustrator 19.0.0, SVG Export Plug-In . SVG Version: 6.00 Build 0)  -->
<svg version="1.1" id="Layer_1" xmlns="http://www.w3.org/2000/svg" xmlns:xlink="http://www.w3.org/1999/xlink" x="0px" y="0px"
	 viewBox="0 0 512 512" style="enable-background:new 0 0 512 512;" xml:space="preserve">
<path style="fill:#C79175;" d="M264.865,240.306l-18.576-0.844l0.423-9.277c0.032-0.78,2.768-78.102-48.637-87.988l-9.13-1.757
	l3.512-18.26l9.129,1.755c28.239,5.431,48.226,26.068,57.799,59.681c6.869,24.117,5.945,46.462,5.903,47.401L264.865,240.306z"/>
<path style="fill:#FD6568;" d="M333.734,207.004c-29.86,0-57.095,6.71-77.734,23.592c-20.639-16.881-47.874-23.592-77.734-23.592
	c-64.449,0-116.695,31.224-116.695,128.629S157.664,512,202.237,512c10.448,0,21.09-4.341,31.264-12.24
	c13.201-10.249,31.797-10.249,44.998,0c10.174,7.899,20.816,12.24,31.264,12.24c44.574,0,140.667-78.963,140.667-176.367
	S398.181,207.004,333.734,207.004z"/>
<path style="fill:#E04F56;" d="M140.598,335.633c0-76.414,32.156-112.093,77.132-123.924c-12.329-3.235-25.607-4.704-39.464-4.704
	c-64.449,0-116.695,31.224-116.695,128.629C61.57,433.039,157.664,512,202.237,512c10.448,0,21.09-4.341,31.264-12.24
	c1.475-1.145,3.026-2.143,4.62-3.032C192.816,469.213,140.598,407.438,140.598,335.633z"/>
<path style="fill:#9DDA74;" d="M263.349,170.348h-21.053v-21.053c0-49.172,23.759-92.759,60.424-119.965
	c4.629-3.433,9.472-6.61,14.5-9.515C339.115,7.207,364.513,0,391.605,0h21.039v21.039c0,15.54-2.379,30.511-6.78,44.613
	c-1.595,5.1-3.461,10.084-5.57,14.928c-7.734,17.776-18.831,33.759-32.477,47.135c-4.957,4.872-10.27,9.387-15.882,13.518
	C327.15,159.536,296.524,170.348,263.349,170.348z"/>
<path style="fill:#81B256;" d="M253.137,170.348h-10.839v-10.839l66.52-66.52l-6.097-63.658c4.629-3.433,9.472-6.61,14.5-9.515
	l5.655,59.113L401.79,0h10.854v10.841l-51.336,51.336l44.556,3.476c-1.595,5.1-3.461,10.084-5.57,14.928l-53.245-4.145
	l-43.573,43.573l64.341,7.707c-4.957,4.872-10.27,9.387-15.882,13.518l-62.262-7.422L253.137,170.348z"/>
<g>
</g>
<g>
</g>
<g>
</g>
<g>
</g>
<g>
</g>
<g>
</g>
<g>
</g>
<g>
</g>
<g>
</g>
<g>
</g>
<g>
</g>
<g>
</g>
<g>
</g>
<g>
</g>
<g>
</g>
</svg>
