<svg id="Layer_1" data-name="Layer 1" xmlns="http://www.w3.org/2000/svg" viewBox="0 0 500 500"><defs><style>.cls-1{fill:#3fa534;}.cls-2{fill:#efefef;}.cls-3{fill:#ffd72e;}.cls-4{fill:#37872b;}.cls-5{fill:#d3d3d3;}.cls-6{fill:#df3333;}.cls-7{fill:#b52d2d;}.cls-8{fill:none;stroke:#000;stroke-linecap:round;stroke-linejoin:round;stroke-width:15px;}.cls-9{fill:#ffbf0b;}</style></defs><title>wine</title><path class="cls-1" d="M386.59,155.27V7.81h-56V155.27a80.48,80.48,0,0,0-52.43,75.42V474.36A17.83,17.83,0,0,0,296,492.19H421.19A17.83,17.83,0,0,0,439,474.36V230.69A80.48,80.48,0,0,0,386.59,155.27Z"/><path class="cls-2" d="M142.32,366.44h0a81.67,81.67,0,0,1-44-12.76c-26.68-17-40.7-48.26-36.71-79.64l9.09-71.58H213.89L223,274c4,31.38-10,62.66-36.71,79.64A81.67,81.67,0,0,1,142.32,366.44Z"/><rect class="cls-3" x="330.56" y="7.81" width="56.03" height="51.33"/><path class="cls-4" d="M386.59,155.27V7.81H352v137.4A15.56,15.56,0,0,0,360.53,159a80.42,80.42,0,0,1,43.87,71.65v261.5h16.79A17.83,17.83,0,0,0,439,474.36V230.69A80.48,80.48,0,0,0,386.59,155.27Z"/><path class="cls-5" d="M223,274l-9.1-71.58H179.28L188.37,274c4,31.38-10,62.66-36.71,79.64A81.69,81.69,0,0,1,125,364.61a82.25,82.25,0,0,0,17.31,1.83h0a81.67,81.67,0,0,0,44-12.76C213,336.7,227,305.42,223,274Z"/><path class="cls-6" d="M98.36,353.68a81.67,81.67,0,0,0,44,12.76h0a81.67,81.67,0,0,0,44-12.76c25.62-16.31,39.55-45.79,37.09-75.89H61.27C58.81,307.89,72.74,337.37,98.36,353.68Z"/><path class="cls-7" d="M188.69,352.08l.8-.58,1.55-1.1.93-.72c.44-.34.89-.68,1.33-1s.66-.54,1-.81l1.22-1,1-.89c.38-.33.76-.66,1.13-1l1-.95,1-1c.33-.33.66-.67,1-1s.66-.67,1-1,.65-.71,1-1.07l.9-1,1-1.14c.28-.33.56-.67.83-1s.64-.79.95-1.19l.77-1q.48-.63.93-1.26l.71-1c.31-.44.62-.88.92-1.33s.43-.64.64-1l.89-1.39.58-.95q.45-.74.87-1.47c.18-.3.35-.6.52-.9.29-.52.57-1,.85-1.56l.45-.86c.28-.55.56-1.1.83-1.65.13-.26.26-.53.38-.79.28-.58.55-1.17.81-1.76.11-.23.21-.47.32-.71.27-.62.54-1.25.79-1.88l.24-.59c.27-.67.53-1.35.78-2,.05-.15.1-.3.16-.45.26-.73.52-1.46.77-2.2,0-.08,0-.16.07-.24a83.64,83.64,0,0,0,3.84-32.75H188.75c2.46,30.1-11.47,59.58-37.09,75.89A81.69,81.69,0,0,1,125,364.61l2.14.43,1.3.22c.43.08.85.15,1.28.21l1.25.19,1.6.2.94.11c.82.09,1.65.16,2.48.23l.88.06,1.92.1.82,0c.9,0,1.8.05,2.7.05a81.92,81.92,0,0,0,28.73-5.17c.89-.34,1.78-.69,2.66-1,1.16-.48,2.31-1,3.44-1.53q2.16-1,4.25-2.14c.83-.45,1.65-.92,2.47-1.4s1.61-1,2.41-1.47S187.9,352.62,188.69,352.08Z"/><path class="cls-8" d="M142.32,366.44h0a81.67,81.67,0,0,1-44-12.76c-26.68-17-40.7-48.26-36.71-79.64l9.09-71.58H213.89L223,274c4,31.38-10,62.66-36.71,79.64A81.67,81.67,0,0,1,142.32,366.44Z"/><line class="cls-8" x1="142.32" y1="366.44" x2="142.32" y2="491.19"/><line class="cls-8" x1="95.75" y1="491.19" x2="188.89" y2="491.19"/><path class="cls-8" d="M98.36,353.68a81.67,81.67,0,0,0,44,12.76h0a81.67,81.67,0,0,0,44-12.76c25.62-16.31,39.55-45.79,37.09-75.89H61.27C58.81,307.89,72.74,337.37,98.36,353.68Z"/><path class="cls-8" d="M386.59,155.27V7.81h-56V155.27a80.48,80.48,0,0,0-52.43,75.42V474.36A17.83,17.83,0,0,0,296,492.19H421.19A17.83,17.83,0,0,0,439,474.36V230.69A80.48,80.48,0,0,0,386.59,155.27Z"/><rect class="cls-3" x="330.56" y="7.81" width="56.03" height="51.33"/><rect class="cls-9" x="351.97" y="7.81" width="34.62" height="51.33"/><rect class="cls-3" x="343.07" y="247.27" width="95.95" height="190.31"/><rect class="cls-9" x="404.4" y="247.27" width="34.62" height="190.31"/><rect class="cls-8" x="330.56" y="7.81" width="56.03" height="51.33"/><rect class="cls-8" x="343.07" y="247.27" width="95.95" height="190.31"/></svg>